<svg width="72" height="72" viewBox="0 0 72 72" fill="none" xmlns="http://www.w3.org/2000/svg">
<path fill-rule="evenodd" clip-rule="evenodd" d="M27.2439 43.0029C24.83 43.0029 22.8668 41.0396 22.8656 38.626H22.3906L20.6764 39.9984V45.9218H23.1429C23.3161 45.9218 23.4752 45.9819 23.6002 46.0825C23.8052 46.2273 25.1576 47.1563 27.2274 48.0193L33.4769 45.2722C33.5771 45.2205 33.6909 45.1914 33.8115 45.1914C33.8225 45.1914 33.8335 45.1916 33.8444 45.1921L44.7017 45.1935L44.7027 45.1934L51.2328 44.7146C52.5565 44.4781 53.5142 43.3346 53.5142 41.9842C53.5142 41.813 53.5729 41.6558 53.6713 41.5315C53.3312 41.4692 53.0742 41.1719 53.0742 40.8137C53.0742 40.4102 53.4004 40.084 53.8039 40.084H54.2425V38.626H51.244C50.8405 38.626 50.5143 38.2998 50.5143 37.8963C50.5143 37.4934 50.8405 37.1665 51.244 37.1665H54.9722C55.3758 37.1665 55.7019 37.4934 55.7019 37.8963V40.8137C55.7019 41.2173 55.3758 41.5434 54.9722 41.5434H54.8259C54.9187 41.6658 54.9737 41.8185 54.9737 41.9842C54.9737 44.0617 53.4887 45.8175 51.4425 46.1597C51.4132 46.1644 51.3843 46.1672 51.3555 46.1685L45.0977 46.6274C44.1909 47.5662 40.4441 51.0299 34.5412 51.0299C28.6028 51.0299 23.9327 48.0791 22.912 47.3812H19.9542L19.9466 47.3813C19.5431 47.3813 19.2169 47.0551 19.2169 46.6515V46.6515V39.6483C19.2169 39.4065 19.3341 39.1924 19.5149 39.0597L21.679 37.3263C21.6939 37.3145 21.7091 37.3033 21.7245 37.2928C21.8414 37.2131 21.9828 37.1665 22.1351 37.1665H23.1149C23.7166 35.4668 25.3401 34.2461 27.2439 34.2461C29.1478 34.2461 30.7713 35.4668 31.373 37.1665H43.9759C44.3795 37.1665 44.7057 37.4934 44.7057 37.8963C44.7057 38.2998 44.3787 38.626 43.9759 38.626H31.6223C31.6211 41.0396 29.6579 43.0029 27.2439 43.0029ZM30.1016 38.0273C30.1034 38.0375 30.1055 38.0476 30.1078 38.0577C30.1439 38.2409 30.1629 38.4301 30.1629 38.6238C30.1629 40.2336 28.8537 41.5434 27.2439 41.5434C25.6342 41.5434 24.325 40.2336 24.325 38.6238C24.325 38.4358 24.3429 38.252 24.377 38.0739C24.3822 38.0531 24.3865 38.032 24.3898 38.0106C24.6723 36.6949 25.8445 35.7056 27.2439 35.7056C28.6493 35.7056 29.8255 36.7033 30.1016 38.0273ZM29.2167 48.7381L33.0818 47.0392V49.5061C31.69 49.3832 30.3861 49.0965 29.2167 48.7381ZM34.5412 46.6516V49.5712C38.4288 49.5709 41.3082 47.87 42.8711 46.6527L34.5412 46.6516Z" fill="#0033A0"/>
<path d="M54.2439 42.7132C53.8403 42.7132 53.5142 42.387 53.5142 41.9835V40.813C53.5142 40.4094 53.8403 40.0833 54.2439 40.0833C54.6474 40.0833 54.9736 40.4094 54.9736 40.813V41.9835C54.9736 42.387 54.6474 42.7132 54.2439 42.7132Z" fill="#0033A0"/>
<path fill-rule="evenodd" clip-rule="evenodd" d="M43.2899 38.6237C43.2899 41.0384 45.2536 43.0029 47.6683 43.0029C50.083 43.0029 52.0467 41.0384 52.0467 38.6237C52.0467 36.2098 50.083 34.2461 47.6683 34.2461C45.2536 34.2461 43.2899 36.2098 43.2899 38.6237ZM44.7494 38.6238C44.7494 37.0147 46.0585 35.7056 47.6683 35.7056C49.2781 35.7056 50.5872 37.0147 50.5872 38.6238C50.5872 40.2336 49.2781 41.5434 47.6683 41.5434C46.0585 41.5434 44.7494 40.2336 44.7494 38.6238Z" fill="#0033A0"/>
<path fill-rule="evenodd" clip-rule="evenodd" d="M45.4791 38.6245C45.4791 39.8315 46.4613 40.8137 47.6683 40.8137C48.876 40.8137 49.8575 39.8315 49.8575 38.6245C49.8575 37.4175 48.8753 36.4353 47.6683 36.4353C46.4613 36.4353 45.4791 37.4175 45.4791 38.6245ZM46.9386 38.6245C46.9386 38.2224 47.2655 37.8948 47.6683 37.8948C48.0711 37.8948 48.398 38.2224 48.398 38.6245C48.398 39.0273 48.0711 39.3542 47.6683 39.3542C47.2655 39.3542 46.9386 39.0273 46.9386 38.6245Z" fill="#00AEC7"/>
<path fill-rule="evenodd" clip-rule="evenodd" d="M25.0548 38.6245C25.0548 39.8315 26.037 40.8137 27.244 40.8137C28.451 40.8137 29.4332 39.8315 29.4332 38.6245C29.4332 37.4175 28.451 36.4353 27.244 36.4353C26.037 36.4353 25.0548 37.4175 25.0548 38.6245ZM26.5143 38.6245C26.5143 38.2224 26.8412 37.8948 27.244 37.8948C27.6468 37.8948 27.9737 38.2224 27.9737 38.6245C27.9737 39.0273 27.6468 39.3542 27.244 39.3542C26.8412 39.3542 26.5143 39.0273 26.5143 38.6245Z" fill="#00AEC7"/>
<path d="M58.6217 51.0139H13.3784C12.9749 51.0139 12.6487 50.6877 12.6487 50.2842C12.6487 49.8806 12.9749 49.5544 13.3784 49.5544H58.6217C59.0252 49.5544 59.3514 49.8806 59.3514 50.2842C59.3514 50.6877 59.0252 51.0139 58.6217 51.0139Z" fill="#0033A0"/>
<path d="M37.4617 30.7362C37.226 30.7362 36.9947 30.6223 36.8539 30.4114C36.6298 30.0765 36.7203 29.6226 37.056 29.3993C37.0699 29.3891 37.5726 29.0279 37.6821 28.3354C37.7857 27.6808 37.515 26.9168 36.8765 26.0659C35.9811 24.8721 35.6199 23.7242 35.8038 22.6537C36.0249 21.3635 36.9502 20.7133 37.0553 20.6433C37.3895 20.4192 37.8426 20.5097 38.0674 20.8454C38.29 21.1789 38.2017 21.6284 37.8711 21.8532C37.8383 21.8765 37.3464 22.2377 37.2384 22.9215C37.1348 23.5761 37.4055 24.3401 38.0441 25.191C38.9394 26.3848 39.3006 27.5327 39.1168 28.6032C38.8956 29.8933 37.9703 30.5435 37.8653 30.6136C37.7419 30.6968 37.6004 30.7362 37.4617 30.7362Z" fill="#00AEC7"/>
<path d="M43.2988 31.5145C43.0631 31.5145 42.8317 31.4007 42.6909 31.1898C42.4669 30.8548 42.5574 30.4009 42.893 30.1776C42.9069 30.1674 43.4097 29.8062 43.5191 29.1137C43.6228 28.4591 43.352 27.6951 42.7135 26.8442C41.8181 25.6504 41.4569 24.5025 41.6408 23.432C41.8619 22.1418 42.7872 21.4917 42.8923 21.4216C43.2265 21.1976 43.6797 21.2881 43.9044 21.6237C44.127 21.9572 44.0387 22.4067 43.7081 22.6315C43.6753 22.6548 43.1835 23.0161 43.0755 23.6998C42.9718 24.3544 43.2426 25.1184 43.8811 25.9693C44.7765 27.1631 45.1377 28.311 44.9538 29.3815C44.7327 30.6717 43.8074 31.3218 43.7023 31.3919C43.579 31.4751 43.4374 31.5145 43.2988 31.5145Z" fill="#00AEC7"/>
<path d="M31.6224 31.5145C31.3867 31.5145 31.1553 31.4007 31.0145 31.1898C30.7905 30.8548 30.881 30.4009 31.2166 30.1776C31.2305 30.1674 31.7333 29.8062 31.8428 29.1137C31.9464 28.4591 31.6756 27.6951 31.0371 26.8442C30.1418 25.6504 29.7805 24.5025 29.9644 23.432C30.1855 22.1418 31.1108 21.4917 31.2159 21.4216C31.5501 21.1976 32.0033 21.2881 32.228 21.6237C32.4506 21.9572 32.3623 22.4067 32.0318 22.6315C31.9989 22.6548 31.5071 23.0161 31.3991 23.6998C31.2955 24.3544 31.5662 25.1184 32.2047 25.9693C33.1001 27.1631 33.4613 28.311 33.2774 29.3815C33.0563 30.6717 32.131 31.3218 32.0259 31.3919C31.9026 31.4751 31.761 31.5145 31.6224 31.5145Z" fill="#00AEC7"/>
<circle opacity="0.0594076" cx="36" cy="36" r="36" fill="#0033A0"/>
</svg>
