<svg width="72" height="72" viewBox="0 0 72 72" fill="none" xmlns="http://www.w3.org/2000/svg">
<circle opacity="0.0594076" cx="36" cy="36" r="36" fill="#0033A0"/>
<mask id="mask0" mask-type="alpha" maskUnits="userSpaceOnUse" x="14" y="15" width="44" height="44">
<rect x="14.4" y="15" width="43.2" height="43.2" fill="#C4C4C4"/>
</mask>
<g mask="url(#mask0)">
</g>
<g clip-path="url(#clip0)">
<path d="M49.6131 16.9726C48.1962 17.8524 46.5506 18.3173 44.8544 18.3173C42.2603 18.3173 39.8151 17.2257 38.1457 15.3223C38.1456 15.3223 38.1456 15.3223 38.1456 15.3223C37.6315 14.7362 36.8869 14.3999 36.1029 14.3999C35.319 14.3999 34.5744 14.7362 34.0602 15.3223C32.3908 17.2256 29.9455 18.3172 27.3515 18.3172C25.6552 18.3172 24.0097 17.8522 22.5928 16.9726C20.8624 15.8986 18.6 17.163 18.6 19.1123V36.1828C18.6 39.9799 19.8737 43.6898 22.1862 46.629C27.907 53.9033 35.44 57.051 35.7579 57.1815C35.8681 57.2267 35.9856 57.2494 36.1029 57.2494C36.2203 57.2494 36.3379 57.2267 36.448 57.1815C36.7659 57.051 44.2989 53.9034 50.0196 46.6299C52.3323 43.6898 53.6059 39.9795 53.6059 36.1828V19.1124C53.6059 17.163 51.343 15.8986 49.6131 16.9726ZM36.1029 16.0737C36.3721 16.0737 36.6213 16.1889 36.8046 16.398C38.8075 18.6814 41.7415 19.9911 44.8544 19.9911C46.8897 19.9911 48.8647 19.4328 50.5662 18.3765C50.7025 18.2919 50.8512 18.2551 50.9977 18.2577L51.0706 18.2622C51.4822 18.306 51.8556 18.6542 51.8556 19.1124V36.1828C51.8556 39.619 50.7069 42.9718 48.6209 45.6238C43.9344 51.5823 37.8094 54.6971 36.1737 55.4574L36.1024 55.4904C34.5808 54.7925 28.3529 51.6858 23.5849 45.6229C21.499 42.9718 20.3503 39.6193 20.3503 36.1828V19.1124C20.3503 18.6345 20.7638 18.2661 21.2044 18.2568L21.278 18.2586C21.4009 18.2674 21.5243 18.3049 21.6397 18.3765C23.3411 19.4328 25.3162 19.9911 27.3515 19.9911C30.4644 19.9911 33.3985 18.6815 35.4012 16.398C35.5846 16.1889 35.8338 16.0737 36.1029 16.0737Z" fill="#0033A0"/>
<path d="M49.5978 20.5658C49.3622 20.4085 49.0607 20.3692 48.789 20.4603C47.4537 20.9082 46.0604 21.1353 44.6481 21.1353C41.5973 21.1353 38.6553 20.0705 36.3636 18.1371C36.027 17.8531 35.5184 17.8531 35.1818 18.1371C32.8903 20.0705 29.9481 21.1353 26.8974 21.1353C25.485 21.1353 24.0918 20.9082 22.7565 20.4603C22.4845 20.3692 22.1832 20.4085 21.9477 20.5658C21.7123 20.723 21.5721 20.9786 21.5721 21.2512V26.9412C21.5721 27.4046 21.9697 27.7803 22.4598 27.7803C22.9499 27.7803 23.3473 27.4046 23.3473 26.9412V22.3854C24.5062 22.6699 25.6957 22.8136 26.8974 22.8136C30.1276 22.8136 33.25 21.7703 35.7728 19.8615C38.2956 21.7703 41.418 22.8136 44.6482 22.8136C45.8499 22.8136 47.0394 22.6699 48.1983 22.3854V35.6916C48.1983 38.4146 47.2865 41.0589 45.6303 43.1379C42.2743 47.3584 38.1753 49.9716 35.7811 51.2582C33.3681 49.9548 29.2428 47.3217 25.9149 43.1393C24.2592 41.059 23.3472 38.414 23.3472 35.6915L23.3473 27.2214C23.3473 26.7581 22.9499 26.3823 22.4598 26.3823C21.9697 26.3823 21.5721 26.7581 21.5721 27.2214V35.6915C21.5721 38.7758 22.6107 41.7791 24.4965 44.1482C28.2287 48.8391 32.8998 51.6793 35.3519 52.9549C35.4852 53.0241 35.6324 53.0587 35.7797 53.0587C35.9262 53.0587 36.0728 53.0245 36.2054 52.956C38.6387 51.6986 43.283 48.8822 47.0486 44.147C48.9345 41.7793 49.9732 38.7765 49.9732 35.6915V21.2511" fill="#00AEC7"/>
<path d="M27.996 40.32C28.2062 40.32 28.3113 40.209 28.3113 39.9871V34.8952C28.5927 34.9064 29.0575 34.9128 29.7056 34.9144H30.1804C30.4409 34.9128 30.6388 34.9064 30.7738 34.8952L33.8275 40.1438C33.9063 40.2613 34.0179 40.32 34.1624 40.32H35.1868C35.4101 40.32 35.4626 40.2221 35.3444 40.0262L32.1135 34.6602C32.9015 34.4513 33.5057 34.0629 33.926 33.495C34.3463 32.927 34.5564 32.2188 34.5564 31.3701V30.9589C34.5564 28.6349 33.0394 27.4729 30.0055 27.4729C28.9942 27.4729 28.0945 27.5447 27.3065 27.6883C27.0701 27.7275 26.9519 27.8646 26.9519 28.0996V39.9871C26.9519 40.209 27.0635 40.32 27.2868 40.32H27.996ZM30.2616 33.8181C29.6443 33.8181 28.9942 33.8051 28.3113 33.7789V29.0005C28.3113 28.8699 28.3277 28.7818 28.3605 28.7361C28.3933 28.6904 28.4754 28.661 28.6068 28.6479C28.9351 28.5957 29.4079 28.5696 30.0252 28.5696C31.1285 28.5696 31.9198 28.7524 32.3992 29.118C32.8785 29.4835 33.1182 30.1102 33.1182 30.998V31.2526C33.1182 32.1665 32.8917 32.8226 32.4386 33.2208C31.9854 33.619 31.2598 33.8181 30.2616 33.8181ZM41.6881 40.4963C42.7256 40.4963 43.7238 40.3069 44.6826 39.9283C44.9058 39.8369 44.9912 39.6933 44.9387 39.4975L44.8008 39.0666C44.7482 38.8577 44.5972 38.799 44.3477 38.8904C43.4283 39.2298 42.5418 39.3996 41.6881 39.3996C40.5323 39.3996 39.6917 39.1058 39.1664 38.5183C38.8118 38.1266 38.5786 37.6207 38.467 37.0005C38.3554 36.3804 38.2995 35.4632 38.2995 34.249V33.7006C38.2995 32.4995 38.3619 31.579 38.4867 30.9393C38.6115 30.2995 38.8643 29.7903 39.2452 29.4117C39.7837 28.8503 40.5323 28.5696 41.4911 28.5696C42.4236 28.5696 43.3232 28.8242 44.1901 29.3334C44.3608 29.4248 44.4921 29.4052 44.5841 29.2746L44.919 28.7654C45.0109 28.6088 44.9781 28.4847 44.8205 28.3933C43.8092 27.7797 42.6797 27.4729 41.432 27.4729C40.1974 27.4729 39.1992 27.7797 38.4374 28.3933C37.8595 28.8634 37.4524 29.5064 37.216 30.3224C36.9796 31.1384 36.8614 32.1861 36.8614 33.4656V34.5036C36.8614 36.8014 37.2226 38.3747 37.9449 39.2233C38.6804 40.0719 39.9281 40.4963 41.6881 40.4963Z" fill="#0033A0" stroke="#0033A0" stroke-width="0.6"/>
</g>
<defs>
<clipPath id="clip0">
<rect width="35.3455" height="43.2" fill="white" transform="translate(18.6 14.3999)"/>
</clipPath>
</defs>
</svg>
